# xmcd
#
# Track frame offsets:
#	150
#	16654
#	33642
#	49516
#	64323
#	83177
#	104107
#	125652
#	143253
#	157596
#	179739
#	200134
#	216198
#	231176
#	248121
#	266257
#	279570
#	296609
#	313423
#	328038
#	346593
#
# Disc length: 4786 seconds
#
# Revision: 1
# Processed by: cddbd v1.5.2PL0 Copyright (c) Steve Scherf et al.
# Submitted via: audiograbber 1.83.01
#
DISCID=3a12b015
DTITLE=Николай Басков - Сердце
DYEAR=1900
DGENRE=
TTITLE0=Сердце
TTITLE1=Отпусти меня
TTITLE2=Но только ты не знала
TTITLE3=Ах эта ночь
TTITLE4=Шарманка
TTITLE5=Силы небесные
TTITLE6=Омут
TTITLE7=Родная-чужая
TTITLE8=Звезды падают
TTITLE9=Power of love
TTITLE10=Призрак в опере
TTITLE11=Моя любовь
TTITLE12=Цветет калина
TTITLE13=Памяти Карузо
TTITLE14=Так должно быть
TTITLE15=320 ударов
TTITLE16=Только ты
TTITLE17=Река судьбы
TTITLE18=Ты моя Украина
TTITLE19=Белая сирень
TTITLE20=Я буду руки твои целовать
EXTD=
EXTT0=
EXTT1=
EXTT2=
EXTT3=
EXTT4=
EXTT5=
EXTT6=
EXTT7=
EXTT8=
EXTT9=
EXTT10=
EXTT11=
EXTT12=
EXTT13=
EXTT14=
EXTT15=
EXTT16=
EXTT17=
EXTT18=
EXTT19=
EXTT20=
PLAYORDER=
